PathFileType	4	(X/Y/Z)	./resultDataOpenSim/trcMotMarkerGrf/sub06/qtm-12-07.trc
DataRate	CameraRate	NumFrames	NumMarkers	Units	OrigDataRate	OrigDataStartFrame	OrigNumFrames
250.000000	250.000000	14	24	m	250.000000	189	502
Frame#	Time	L.Toe.Tip			R.Toe.Tip			L.Ankle.Lat			R.Ankle.Lat			L.Ankle.Med			R.Ankle.Med			L.Heel			R.Heel			L.Knee.Lat			R.Knee.Lat			L.Knee.Med			R.Knee.Med			L.Thigh.Upper			R.Thigh.Upper			L.ASIS			R.ASIS			V.Sacral			L.Acromium			R.Acromium			C7			L.Elbow			R.Elbow			L.Wrist.Lat			R.Wrist.Lat
		X1	Y1	Z1	X2	Y2	Z2	X3	Y3	Z3	X4	Y4	Z4	X5	Y5	Z5	X6	Y6	Z6	X7	Y7	Z7	X8	Y8	Z8	X9	Y9	Z9	X10	Y10	Z10	X11	Y11	Z11	X12	Y12	Z12	X13	Y13	Z13	X14	Y14	Z14	X15	Y15	Z15	X16	Y16	Z16	X17	Y17	Z17	X18	Y18	Z18	X19	Y19	Z19	X20	Y20	Z20	X21	Y21	Z21	X22	Y22	Z22	X23	Y23	Z23	X24	Y24	Z24

189	0.752	0.022355243	0.010462785	-0.056401382	-0.48162349	0.10441175	0.12005564	-0.099948837	0.04095251	-0.082471286	-0.49882895	0.24315157	0.13975975	-0.10207703	0.055811329	0.0050083933	-0.45917359	0.22983718	0.059676991	-0.17742915	0.015124383	-0.03948208	-0.52822038	0.28272889	0.074417688	-0.011174665	0.4046347	-0.10700183	-0.15520843	0.38020407	0.18902745	-0.041507919	0.40750732	0.012102802	-0.15229332	0.35987432	0.054523733	-0.14676055	0.77555883	-0.17667418	-0.23080707	0.73822071	0.15443915	-0.090590124	0.8128678	-0.11659313	-0.12886754	0.79731444	0.12853714	-0.29203509	0.88599211	-0.013727488	-0.13866733	1.2781029	-0.19523111	-0.15976745	1.283543	0.16818819	-0.22647712	1.3267974	-0.020083614	-0.24003162	0.97787909	-0.23287261	-0.23096055	0.97226053	0.25042008	-0.15715424	0.75380024	-0.28399869	-0.037846467	0.81438118	0.24971452
190	0.756	0.022247962	0.010492387	-0.056499441	-0.46417775	0.10515142	0.12112275	-0.10007215	0.041037865	-0.082508687	-0.4839056	0.24338099	0.14025038	-0.10208275	0.055938216	0.00493763	-0.44400356	0.2304387	0.06018252	-0.17749517	0.015190651	-0.039506247	-0.51410086	0.28235736	0.07488032	-0.010682028	0.40479973	-0.10699458	-0.14174745	0.38369244	0.18900244	-0.040579255	0.40784148	0.012118204	-0.13887187	0.36290583	0.054438035	-0.14256773	0.77690179	-0.1770398	-0.22371154	0.74061712	0.15419392	-0.08510233	0.81470727	-0.1172869	-0.1227707	0.79987776	0.12810111	-0.28617915	0.88834178	-0.0134639	-0.13177381	1.280803	-0.19488866	-0.15371811	1.285647	0.16853754	-0.21976856	1.3290621	-0.019865876	-0.23167401	0.97981144	-0.23322586	-0.22702471	0.97471773	0.24958407	-0.1460273	0.756562	-0.28367858	-0.036432362	0.81391655	0.24982488
191	0.76	0.022150001	0.010515644	-0.056580879	-0.44648553	0.1057325	0.12223517	-0.10021516	0.041138092	-0.08255553	-0.46897376	0.24335145	0.14078459	-0.1021709	0.05609842	0.0048554976	-0.42878629	0.2308196	0.060650848	-0.17754984	0.015222445	-0.039422707	-0.50001072	0.28168567	0.075351235	-0.010335937	0.404979	-0.10699117	-0.12837638	0.38735611	0.18889518	-0.039749226	0.40813537	0.012103634	-0.12554561	0.36610075	0.054240889	-0.1384681	0.77833191	-0.1772275	-0.21699309	0.74309525	0.15445267	-0.079592245	0.8166676	-0.11799982	-0.11665031	0.80250905	0.12762055	-0.28047864	0.89077191	-0.013816433	-0.12496237	1.283565	-0.19453369	-0.14761051	1.2877477	0.16885665	-0.21308617	1.3313313	-0.019620183	-0.22327164	0.98177286	-0.23376426	-0.22305301	0.977251	0.24877923	-0.13483767	0.75945678	-0.28333879	-0.035122458	0.81354824	0.2499652
192	0.764	0.022048977	0.010521616	-0.056641301	-0.42860458	0.10611867	0.12334782	-0.10037479	0.041246868	-0.082614142	-0.45397753	0.24308595	0.1413796	-0.10233812	0.056286878	0.004756159	-0.41352655	0.23099898	0.061101471	-0.177614	0.015224873	-0.039286871	-0.48599741	0.28072839	0.075862959	-0.010114918	0.40517428	-0.10699858	-0.11510414	0.39119168	0.18871385	-0.039116455	0.40833649	0.012035785	-0.1122328	0.36945976	0.053929293	-0.13421153	0.77990535	-0.1774022	-0.21032838	0.74567368	0.15485457	-0.074308487	0.81865424	-0.11880704	-0.11049676	0.80519617	0.12710199	-0.27478989	0.89320961	-0.014271461	-0.11822409	1.2863708	-0.19416246	-0.14144631	1.289837	0.16913994	-0.20642259	1.3336007	-0.019352105	-0.2149033	0.98377393	-0.23436291	-0.21904597	0.97984888	0.24800642	-0.12360751	0.76246673	-0.28296484	-0.033904659	0.81326729	0.25013759
193	0.768	0.021941278	0.010515008	-0.056692818	-0.41054209	0.10630321	0.12444266	-0.10054334	0.04135732	-0.082681882	-0.43886508	0.24259944	0.14203106	-0.10251528	0.056487999	0.0046311172	-0.39820559	0.23097931	0.061587908	-0.17772049	0.015242177	-0.03925258	-0.47209116	0.27949864	0.076446187	-0.0099941217	0.40538425	-0.10701613	-0.10193535	0.39518679	0.1884739	-0.038720795	0.40842634	0.011922658	-0.098846096	0.37296959	0.053552198	-0.12961533	0.78162041	-0.17778374	-0.20348362	0.74835686	0.15515592	-0.069251411	0.82062833	-0.11966912	-0.1042949	0.80792364	0.12655254	-0.26901742	0.89560522	-0.014505195	-0.11153174	1.289199	-0.19378219	-0.13522807	1.29191	0.16938663	-0.19977116	1.3358678	-0.019068237	-0.20669251	0.98583102	-0.23483366	-0.21502582	0.98249429	0.24726544	-0.11235529	0.76556143	-0.28254185	-0.032761227	0.81306142	0.25034134
194	0.772	0.021830826	0.010513025	-0.056759174	-0.3922524	0.10631478	0.12553693	-0.10071467	0.041468478	-0.082757381	-0.42361581	0.24187806	0.14270072	-0.10263834	0.05669305	0.004475686	-0.38281414	0.23074374	0.062127499	-0.17787899	0.015317313	-0.039411918	-0.45828601	0.27799113	0.077095919	-0.0099322944	0.40560619	-0.10702786	-0.088877755	0.39932427	0.18818772	-0.038522606	0.40844012	0.011805264	-0.085452418	0.37660987	0.053145386	-0.12477261	0.78339654	-0.17835234	-0.19640882	0.75113663	0.1553416	-0.064250426	0.82259731	-0.12049637	-0.098038051	0.81068202	0.12597486	-0.26316337	0.89795763	-0.014474938	-0.10484777	1.2920309	-0.1934134	-0.12895968	1.2939616	0.16959978	-0.19312944	1.3381273	-0.018777313	-0.19866082	0.98793984	-0.23516287	-0.21101763	0.98517075	0.24654849	-0.10107173	0.76872177	-0.28207103	-0.031676277	0.81292573	0.25057569
195	0.776	0.02172448	0.010531862	-0.0568583	-0.37369099	0.10619085	0.12665846	-0.10088491	0.041586545	-0.082842703	-0.40824825	0.24087402	0.14332246	-0.10269164	0.056906008	0.0042985949	-0.36733299	0.2302643	0.062692863	-0.1780458	0.015455933	-0.039674708	-0.44449837	0.27614515	0.077756665	-0.0098879945	0.40583987	-0.10701424	-0.075946764	0.40358727	0.18785431	-0.038470769	0.40843418	0.011718058	-0.072210316	0.38037666	0.052708831	-0.11988669	0.78514641	-0.17887182	-0.18920007	0.75400341	0.15556541	-0.059167929	0.82458358	-0.121252	-0.091728181	0.81346752	0.12536683	-0.25730476	0.90029427	-0.01419832	-0.098149358	1.2948545	-0.19307275	-0.12265087	1.295987	0.16978284	-0.18649871	1.3403685	-0.01848764	-0.1907301	0.99007792	-0.23549593	-0.20703544	0.98787091	0.24584449	-0.089726154	0.77195234	-0.28156418	-0.030642262	0.81286658	0.25084226
196	0.78	0.021626688	0.010571585	-0.056986222	-0.35484906	0.1059543	0.12782301	-0.10105084	0.041719379	-0.082938857	-0.39281599	0.23954075	0.14383459	-0.10269114	0.057138252	0.0041304147	-0.35169074	0.22951461	0.063274136	-0.17817271	0.015619553	-0.039871216	-0.43051791	0.273851	0.078366859	-0.0098452682	0.40608732	-0.10697031	-0.063159126	0.40796095	0.18746333	-0.038528398	0.40845513	0.011676174	-0.059181047	0.38429261	0.052223662	-0.11505999	0.78685076	-0.1791983	-0.18203509	0.75694137	0.15603476	-0.053952133	0.82660078	-0.12194784	-0.085369487	0.81627474	0.12472664	-0.25151698	0.90263851	-0.013742346	-0.091449203	1.2976627	-0.19275119	-0.11631375	1.2979817	0.16993766	-0.17987778	1.342577	-0.018201961	-0.18283113	0.99222326	-0.2359533	-0.20307658	0.99059425	0.24514737	-0.078303083	0.77526916	-0.28102521	-0.02965246	0.81289149	0.2511432
197	0.784	0.02153747	0.010615942	-0.057121476	-0.33576886	0.10560635	0.12900939	-0.10121034	0.041869666	-0.083042332	-0.3773538	0.23789984	0.14423	-0.10264128	0.057405482	0.0040099049	-0.33587208	0.22850093	0.063862272	-0.17827214	0.015757575	-0.039943797	-0.41613536	0.27104923	0.078915582	-0.0098084554	0.40634811	-0.10690293	-0.050519972	0.41243073	0.18701028	-0.038644867	0.40853272	0.011688487	-0.046307265	0.38838351	0.05166984	-0.11031158	0.788534	-0.17938211	-0.17507533	0.7599165	0.15687219	-0.048588896	0.82864792	-0.1225939	-0.078958567	0.81909345	0.1240575	-0.24581567	0.90498879	-0.013311384	-0.084786965	1.3004483	-0.19241984	-0.10995545	1.29994	0.17006736	-0.17326282	1.3447409	-0.017917925	-0.17495862	0.99436153	-0.2365522	-0.19913409	0.99333359	0.24445672	-0.066823046	0.77867535	-0.28044582	-0.028686141	0.81300067	0.2514801
198	0.788	0.021456443	0.010649806	-0.057245116	-0.31653113	0.10514296	0.13016706	-0.10136171	0.042033886	-0.083146629	-0.36182236	0.23604674	0.14457738	-0.10253255	0.057719022	0.003945834	-0.32005904	0.22729581	0.064365724	-0.17837364	0.015859119	-0.039948048	-0.40139722	0.26782081	0.079427615	-0.0097827284	0.40661481	-0.10681679	-0.038020773	0.41697942	0.18650274	-0.038775436	0.40866572	0.011732016	-0.033556051	0.39265048	0.051045572	-0.1055991	0.79020519	-0.17950372	-0.1683206	0.76289803	0.15800513	-0.043128614	0.83070595	-0.12319517	-0.072481428	0.82191288	0.12336929	-0.24017307	0.90732441	-0.013118209	-0.078189721	1.3032015	-0.19205806	-0.10357958	1.3018529	0.17017862	-0.16665416	1.3468531	-0.017633961	-0.16715209	0.99648593	-0.23725827	-0.19520897	0.99606997	0.24377413	-0.055325229	0.78214866	-0.27981702	-0.02771142	0.81318778	0.25185424
199	0.792	0.021386932	0.010671402	-0.057349074	-0.2971821	0.10458035	0.13128953	-0.10150165	0.042207534	-0.083245437	-0.34614624	0.23406584	0.1449707	-0.10239299	0.058065813	0.0039019612	-0.30447302	0.2260077	0.06464083	-0.17845611	0.015965709	-0.039930568	-0.38652932	0.26431267	0.079904779	-0.0097705692	0.40687392	-0.10671007	-0.02565186	0.42158355	0.18595377	-0.038872454	0.40883297	0.011751021	-0.020977579	0.39707502	0.050381359	-0.10076318	0.79185189	-0.17957344	-0.16155967	0.76589166	0.15920273	-0.03774057	0.83273396	-0.12377429	-0.065929342	0.82472373	0.12267501	-0.23455042	0.90962267	-0.013178797	-0.07163496	1.3059121	-0.19167057	-0.097192048	1.3037104	0.17027915	-0.16005615	1.3489092	-0.017352448	-0.15944762	0.99859699	-0.2380428	-0.19130408	0.99878271	0.2431017	-0.043831682	0.78565878	-0.27913521	-0.026714326	0.8134395	0.25226443
200	0.796	0.021332997	0.010685833	-0.057429862	-0.27769189	0.10395187	0.13244429	-0.10162796	0.042390668	-0.083335737	-0.33029173	0.2319733	0.14545544	-0.10228227	0.058408648	0.0038361572	-0.28909136	0.22468448	0.064654172	-0.17848664	0.016124497	-0.039901439	-0.37160297	0.26059844	0.080331962	-0.009776711	0.40711325	-0.10657666	-0.013411104	0.42621067	0.18537505	-0.038895133	0.40902687	0.01172798	-0.0086508396	0.40164728	0.049742819	-0.095648827	0.79345644	-0.17957745	-0.15451481	0.76892497	0.16023908	-0.032577446	0.83469512	-0.12436391	-0.059312355	0.82751771	0.12198236	-0.22889021	0.91185859	-0.013313379	-0.065056902	1.3085724	-0.19127968	-0.090797407	1.3055067	0.17037426	-0.153471	1.3509052	-0.017079173	-0.15182978	1.000698	-0.23888379	-0.18741773	1.0014594	0.2424416	-0.032339171	0.78919338	-0.27840089	-0.025733239	0.81373648	0.25270578
201	0.8	0.021294316	0.010692913	-0.057482536	-0.25803135	0.10327744	0.13369224	-0.10174767	0.042588337	-0.08342176	-0.31428893	0.22973518	0.14601246	-0.10223003	0.058716166	0.0037419075	-0.27367414	0.22325189	0.064588403	-0.17847911	0.016344947	-0.039867685	-0.35653726	0.25668089	0.080733791	-0.0098078378	0.40732793	-0.10641061	-0.0013047116	0.43082982	0.18477111	-0.038954899	0.40926635	0.011752382	0.0033268554	0.40636949	0.049198147	-0.090304289	0.7949933	-0.17954033	-0.14707896	0.77199485	0.16102369	-0.027541535	0.83659324	-0.12496612	-0.052648867	0.83028866	0.12128799	-0.22310492	0.91399686	-0.01330301	-0.058408601	1.3111737	-0.19090265	-0.084395661	1.3072432	0.17046503	-0.14689874	1.352834	-0.01682011	-0.14422061	1.0027819	-0.23973071	-0.1835444	1.0040967	0.24179447	-0.020846105	0.79275744	-0.27761966	-0.024835546	0.81406601	0.25317601
202	0.804	0.021270228	0.010684047	-0.057492502	-0.23825089	0.10254683	0.13502592	-0.10187956	0.042805811	-0.083514908	-0.2981989	0.22730038	0.14659616	-0.10224443	0.058980435	0.0036340112	-0.2580147	0.22156599	0.064724556	-0.17846739	0.016611474	-0.039831443	-0.34136409	0.25256091	0.081160792	-0.0098686077	0.40751811	-0.10621387	0.010652496	0.43542989	0.18413244	-0.039303072	0.40958381	0.011973844	0.014940662	0.41122775	0.048725678	-0.084916405	0.79643389	-0.17951533	-0.1394643	0.77504601	0.16163442	-0.022382661	0.83845343	-0.12554654	-0.045956792	0.83302973	0.12058219	-0.21709847	0.91600016	-0.013016842	-0.051722477	1.3137001	-0.19053735	-0.077991611	1.3089218	0.17054821	-0.14034173	1.3546829	-0.016576941	-0.13651347	1.0048195	-0.2404884	-0.17967419	1.0066935	0.24116008	-0.0093609561	0.7963523	-0.27679515	-0.024022225	0.81443125	0.25368478
